<?xml version="1.0" encoding="utf-8"?>
<!-- Generator: Adobe Illustrator 23.0.3, SVG Export Plug-In . SVG Version: 6.00 Build 0)  -->
<svg version="1.1" id="Layer_1" xmlns="http://www.w3.org/2000/svg" xmlns:xlink="http://www.w3.org/1999/xlink" x="0px" y="0px"
	 viewBox="0 0 127 126" style="enable-background:new 0 0 127 126;" xml:space="preserve">
<g>
	<g>
		<path d="M85,71.5c3,0,5.5,2.1,5.5,4.7c0,1.4,1.1,2.5,2.5,2.5c1.4,0,2.5-1.1,2.5-2.5c0-4.6-3.4-8.4-8-9.4v-1.3
			c0-1.4-1.1-2.5-2.5-2.5c-1.4,0-2.5,1.1-2.5,2.5v1.3c-4.6,1-8,4.9-8,9.4c0,5.4,4.7,9.7,10.5,9.7c3,0,5.5,2.1,5.5,4.7
			S88,95.5,85,95.5c-3,0-5.5-2.1-5.5-4.7c0-1.4-1.1-2.5-2.5-2.5s-2.5,1.1-2.5,2.5c0,4.6,3.4,8.4,8,9.4v1.1c0,1.4,1.1,2.5,2.5,2.5
			c1.4,0,2.5-1.1,2.5-2.5v-1.1c4.6-1,8-4.9,8-9.4c0-5.4-4.7-9.7-10.5-9.7c-3,0-5.5-2.1-5.5-4.7C79.5,73.7,82,71.5,85,71.5z
			 M112.4,66.2c-3.3-5.1-7.9-9.1-13.3-11.7c-1.2-0.6-2.7-0.1-3.3,1.2c-0.6,1.2-0.1,2.7,1.2,3.3c9.5,4.5,15.6,14.2,15.6,24.7
			c0,4.5-1.1,8.9-3.2,12.8c-0.6,1.2-0.2,2.7,1,3.4c0.4,0.2,0.8,0.3,1.2,0.3c0.9,0,1.8-0.5,2.2-1.3c2.5-4.6,3.8-9.9,3.8-15.2
			C117.5,77.4,115.7,71.4,112.4,66.2z M88.7,56.3l0.1,0c0,0,0,0,0,0c1.4,0,2.5-1.1,2.5-2.5c0-1.4-1.1-2.5-2.5-2.5l-0.2,0
			c-1.4,0-2.5,1.1-2.5,2.5C86.2,55.2,87.4,56.3,88.7,56.3z M73.1,108.4c-9.5-4.5-15.6-14.2-15.6-24.7c0-4.5,1.1-8.9,3.2-12.8
			c0.6-1.2,0.2-2.7-1-3.4c-1.2-0.6-2.7-0.2-3.4,1c-2.5,4.6-3.8,9.9-3.8,15.2c0,6.2,1.8,12.3,5.1,17.5c3.3,5.1,7.9,9.1,13.3,11.7
			c0.3,0.2,0.7,0.2,1.1,0.2c0.9,0,1.8-0.5,2.3-1.4C74.9,110.5,74.3,109,73.1,108.4z M81.2,111.1l-0.1,0c-1.4,0-2.5,1.1-2.5,2.5
			c0,1.4,1.1,2.5,2.5,2.5l0.2,0c1.4,0,2.5-1.1,2.5-2.5C83.7,112.2,82.6,111.1,81.2,111.1z M96.3,42.9c-0.3-0.7-0.7-1.4-1.1-2h6.5
			c6.3,0,11.5-5.1,11.5-11.5c0-6.3-5.2-11.5-11.5-11.5h-20c1.3-1.8,2-4.1,2-6.5C83.7,5.1,78.6,0,72.2,0H11C4.7,0-0.5,5.1-0.5,11.4
			c0,6.3,5.2,11.5,11.5,11.5h20c-1.3,1.8-2,4.1-2,6.5c0,2.4,0.7,4.6,2,6.5h-6.5C18.2,35.8,13,41,13,47.3c0,3.6,1.7,6.9,4.4,9
			c-2.6,2.1-4.4,5.3-4.4,9c0,3.6,1.7,6.9,4.4,9c-2.6,2.1-4.4,5.3-4.4,9c0,3.6,1.7,6.9,4.4,9c-2.6,2.1-4.4,5.3-4.4,9
			c0,6.3,5.2,11.5,11.5,11.5H54c7.8,8.3,18.8,13.4,31,13.4c23.4,0,42.5-19,42.5-42.3C127.5,64.2,114.3,47.8,96.3,42.9z M101.7,22.9
			c3.6,0,6.5,2.9,6.5,6.5c0,3.6-2.9,6.5-6.5,6.5h-16H40.5c-3.6,0-6.5-2.9-6.5-6.5c0-3.6,2.9-6.5,6.5-6.5H101.7z M11,17.9
			c-3.6,0-6.5-2.9-6.5-6.5C4.5,7.9,7.4,5,11,5h61.2c3.6,0,6.5,2.9,6.5,6.5c0,3.6-2.9,6.5-6.5,6.5H11z M24.5,40.8h61.2
			c1,0,2,0.2,2.8,0.7c-1.2-0.1-2.4-0.2-3.6-0.2c-11.7,0-22.4,4.8-30.1,12.5H24.5c-3.6,0-6.5-2.9-6.5-6.5
			C18,43.7,20.9,40.8,24.5,40.8z M24.5,58.8h26.2c-2.8,3.9-5,8.2-6.4,12.9H24.5c-3.6,0-6.5-2.9-6.5-6.5S20.9,58.8,24.5,58.8z
			 M24.5,76.7h18.6c-0.4,2.3-0.6,4.6-0.6,7c0,2,0.1,4,0.4,6H24.5c-3.6,0-6.5-2.9-6.5-6.5C18,79.6,20.9,76.7,24.5,76.7z M24.5,107.6
			c-3.6,0-6.5-2.9-6.5-6.5c0-3.6,2.9-6.5,6.5-6.5h19.4c1.3,4.7,3.3,9.1,6,12.9H24.5z M85,121c-20.7,0-37.5-16.8-37.5-37.4
			c0-20.6,16.8-37.4,37.5-37.4c20.7,0,37.5,16.8,37.5,37.4C122.5,104.3,105.7,121,85,121z"/>
	</g>
</g>
</svg>
