<?xml version="1.0" encoding="utf-8"?>
<!-- Generator: Adobe Illustrator 23.0.3, SVG Export Plug-In . SVG Version: 6.00 Build 0)  -->
<svg version="1.1" id="Layer_1" xmlns="http://www.w3.org/2000/svg" xmlns:xlink="http://www.w3.org/1999/xlink" x="0px" y="0px"
	 viewBox="0 0 127 126" style="enable-background:new 0 0 127 126;" xml:space="preserve">
<g>
	<g>
		<path d="M85.6,78.5c-1.4,0-2.5,1.1-2.5,2.5v17c0,6.8-5.5,12.3-12.3,12.3H44.3c-1.4,0-2.5,1.1-2.5,2.5l0,4.9l-5.9-5.9
			c-0.4-0.9-1.3-1.5-2.3-1.5h-16c-6.8,0-12.3-5.5-12.3-12.3V60c0-6.8,5.5-12.3,12.3-12.3h24.9c1.4,0,2.5-1.1,2.5-2.5
			c0-1.4-1.1-2.5-2.5-2.5H17.7C8.2,42.8,0.5,50.6,0.5,60v37.9c0,9.5,7.7,17.2,17.2,17.2h14.7l10.1,10.1c0.5,0.5,1.1,0.7,1.7,0.7
			c0.3,0,0.6-0.1,0.9-0.2c0.9-0.4,1.5-1.3,1.5-2.3l0-8.4h24.1c9.5,0,17.2-7.7,17.2-17.2V81C88.1,79.6,87,78.5,85.6,78.5z M90.7,0
			h-6.2c-19.7,0-35.8,16-35.8,35.8c0,19.7,16,35.8,35.8,35.8h6.2c3.1,0,6.1-0.4,9.1-1.2l9.2,9.2c0.5,0.5,1.1,0.7,1.7,0.7
			c0.3,0,0.6-0.1,0.9-0.2c0.9-0.4,1.5-1.3,1.5-2.3V63.6c3.9-3.2,7.1-7.1,9.4-11.6c2.6-5.1,3.9-10.5,3.9-16.2
			C126.5,16.1,110.4,0,90.7,0z M109.3,60.4c-0.6,0.5-1,1.2-1,2v9.5l-6-6c-0.5-0.5-1.1-0.7-1.7-0.7c-0.2,0-0.5,0-0.7,0.1
			c-2.9,0.9-6,1.4-9.1,1.4h-6.2c-17,0-30.8-13.8-30.8-30.8c0-17,13.8-30.8,30.8-30.8h6.2c17,0,30.8,13.8,30.8,30.8
			C121.6,45.5,117.1,54.5,109.3,60.4z M89,17.3c-2.9-0.2-5.7,0.8-7.8,2.8c-2.1,2-3.3,4.7-3.3,7.6c0,1.4,1.1,2.5,2.5,2.5
			c1.4,0,2.5-1.1,2.5-2.5c0-1.5,0.6-3,1.7-4c1.1-1.1,2.6-1.6,4.1-1.5c2.7,0.2,4.9,2.4,5.1,5.1c0.2,2.7-1.6,5.2-4.3,5.8
			c-2.2,0.5-3.7,2.4-3.7,4.6v5.9c0,1.4,1.1,2.5,2.5,2.5c1.4,0,2.5-1.1,2.5-2.5v-5.7c5-1.2,8.3-5.7,7.9-10.9
			C98.3,21.8,94.2,17.6,89,17.3z M88.3,50.8c-0.6,0-1.3,0.3-1.7,0.7c-0.5,0.5-0.7,1.1-0.7,1.7c0,0.6,0.3,1.3,0.7,1.7
			c0.5,0.5,1.1,0.7,1.7,0.7c0.6,0,1.3-0.3,1.7-0.7c0.5-0.5,0.7-1.1,0.7-1.7c0-0.6-0.3-1.3-0.7-1.7C89.6,51,89,50.8,88.3,50.8z
			 M68.2,76.3H16.3c-1.4,0-2.5,1.1-2.5,2.5c0,1.4,1.1,2.5,2.5,2.5h51.9c1.4,0,2.5-1.1,2.5-2.5C70.6,77.4,69.5,76.3,68.2,76.3z
			 M68.2,90.1c-0.6,0-1.3,0.3-1.7,0.7c-0.5,0.5-0.7,1.1-0.7,1.7s0.3,1.3,0.7,1.7c0.5,0.5,1.1,0.7,1.7,0.7s1.3-0.3,1.7-0.7
			c0.5-0.5,0.7-1.1,0.7-1.7c0-0.6-0.3-1.3-0.7-1.7C69.5,90.3,68.8,90.1,68.2,90.1z M16.3,90.1c-1.4,0-2.5,1.1-2.5,2.5
			c0,1.4,1.1,2.5,2.5,2.5h42.2c1.4,0,2.5-1.1,2.5-2.5c0-1.4-1.1-2.5-2.5-2.5H16.3z M52.2,62.5H16.3c-1.4,0-2.5,1.1-2.5,2.5
			c0,1.4,1.1,2.5,2.5,2.5h35.9c1.4,0,2.5-1.1,2.5-2.5C54.6,63.6,53.5,62.5,52.2,62.5z"/>
	</g>
</g>
</svg>
