<?xml version="1.0" encoding="utf-8"?>
<!-- Generator: Adobe Illustrator 23.0.3, SVG Export Plug-In . SVG Version: 6.00 Build 0)  -->
<svg version="1.1" id="Layer_1" xmlns="http://www.w3.org/2000/svg" xmlns:xlink="http://www.w3.org/1999/xlink" x="0px" y="0px"
	 viewBox="0 0 127 126" style="enable-background:new 0 0 127 126;" xml:space="preserve">
<g>
	<g>
		<path d="M124.5,26.8L109,4.8c-2.1-3-5.5-4.8-9.2-4.8H40.5c-3.7,0-7.1,1.8-9.2,4.8L15.8,26.8c-1.3,1.9-2,4.1-2,6.5v14.6
			c0,1.4,1.1,2.5,2.5,2.5c1.4,0,2.5-1.1,2.5-2.5V33.3c0-0.1,0-0.2,0-0.3h32.7v23.4c0,0.9,0.5,1.7,1.2,2.1c0.8,0.4,1.7,0.4,2.5,0
			l15.1-8.7l14.9,8.7c0.4,0.2,0.8,0.3,1.2,0.3c0.4,0,0.8-0.1,1.2-0.3c0.8-0.4,1.2-1.3,1.2-2.1V33h32.7c0,0.1,0,0.2,0,0.3v68.2
			c0,3.5-2.8,6.3-6.3,6.3h-63c-1.4,0-2.5,1.1-2.5,2.5c0,1.4,1.1,2.5,2.5,2.5h63c6.2,0,11.2-5,11.2-11.2V33.3
			C126.5,30.9,125.8,28.7,124.5,26.8z M77.1,4.9L83.2,28h-26l6.1-23.1H77.1z M52,28H21L35.4,7.6c1.2-1.7,3.1-2.7,5.2-2.7h17.6L52,28
			z M83.9,52.1l-12.4-7.3c-0.8-0.4-1.7-0.4-2.5,0l-12.6,7.3V33h27.5V52.1z M88.3,28L82.2,4.9h17.6c2,0,4,1,5.2,2.7L119.3,28H88.3z
			 M50.2,99.7c4-5,6.2-11.2,6.2-17.6c0-15.4-12.5-27.9-27.9-27.9c-15.4,0-27.9,12.5-27.9,27.9c0,6.4,2.2,12.6,6.2,17.6c0,0,0,0,0,0
			l19.8,25.3c0.5,0.6,1.2,0.9,1.9,0.9c0.8,0,1.5-0.3,1.9-0.9l19.7-25.2C50.1,99.8,50.1,99.7,50.2,99.7z M46,97l-17.6,22.5L10.7,96.8
			c0,0-0.1-0.1-0.1-0.1c-3.3-4.1-5.2-9.3-5.2-14.5c0-12.7,10.3-23,23-23c12.7,0,23,10.3,23,23c0,5.3-1.9,10.5-5.3,14.7
			C46.1,96.8,46.1,96.9,46,97z M28.5,68.8c-7.3,0-13.3,6-13.3,13.3c0,7.3,6,13.3,13.3,13.3c7.3,0,13.3-6,13.3-13.3
			C41.7,74.8,35.8,68.8,28.5,68.8z M28.5,90.5c-4.6,0-8.4-3.8-8.4-8.4c0-4.6,3.8-8.4,8.4-8.4c4.6,0,8.4,3.8,8.4,8.4
			C36.8,86.7,33.1,90.5,28.5,90.5z M102,94.7c-0.5,0.5-0.7,1.1-0.7,1.7c0,0.6,0.3,1.3,0.7,1.7c0.5,0.5,1.1,0.7,1.7,0.7
			c0.6,0,1.3-0.3,1.7-0.7c0.5-0.5,0.7-1.1,0.7-1.7c0-0.6-0.3-1.3-0.7-1.7c-0.5-0.5-1.1-0.7-1.7-0.7C103.1,94,102.5,94.3,102,94.7z
			 M74.5,98.9h20c1.4,0,2.5-1.1,2.5-2.5c0-1.4-1.1-2.5-2.5-2.5h-20c-1.4,0-2.5,1.1-2.5,2.5C72,97.8,73.1,98.9,74.5,98.9z
			 M113.2,84.7c0-1.4-1.1-2.5-2.5-2.5H74.5c-1.4,0-2.5,1.1-2.5,2.5c0,1.4,1.1,2.5,2.5,2.5h36.3C112.1,87.1,113.2,86,113.2,84.7z"/>
	</g>
</g>
</svg>
