<?xml version="1.0" encoding="utf-8"?>
<!-- Generator: Adobe Illustrator 23.0.3, SVG Export Plug-In . SVG Version: 6.00 Build 0)  -->
<svg version="1.1" id="Layer_1" xmlns="http://www.w3.org/2000/svg" xmlns:xlink="http://www.w3.org/1999/xlink" x="0px" y="0px"
	 viewBox="0 0 138 126" style="enable-background:new 0 0 138 126;" xml:space="preserve">
<g>
	<g>
		<path d="M58.3,80c-1,1-1,2.7,0,3.7c1,1,2.7,1,3.8,0c1-1,1-2.7,0-3.7C61.1,79,59.4,79,58.3,80z M63.1,21.5v5.3
			c0,8.8,7.2,15.9,16.1,15.9c8.9,0,16.1-7.1,16.1-15.9v-5.3c1.5,0,2.7-1.2,2.7-2.6c0-1.5-1.2-2.6-2.7-2.6h-5.4
			c-1.5,0-2.7,1.2-2.7,2.6c0,1.5,1.2,2.6,2.7,2.6v5.3c0,5.8-4.8,10.6-10.7,10.6c-5.9,0-10.7-4.7-10.7-10.6v-5.3
			c1.5,0,2.7-1.2,2.7-2.6c0-1.5-1.2-2.6-2.7-2.6h-5.4c-1.5,0-2.7,1.2-2.7,2.6C60.4,20.3,61.6,21.5,63.1,21.5z M133.7,50.5
			c-4.5-3.7-11.2-3.2-15,1.2l-2.6,2.6V2.7c0-1.5-1.2-2.6-2.7-2.6H44.6C43.2,0,42,1.2,42,2.7V62c-10.4,2.2-18.6,8.5-23,17.8
			c-3.5-0.2-6.9,1.1-9.4,3.6l-8.3,8.1c-0.5,0.5-0.8,1.2-0.8,1.9c0,0.7,0.3,1.4,0.8,1.9l30.3,30c0.5,0.5,1.2,0.8,1.9,0.8
			c0.7,0,1.4-0.3,1.9-0.8l8.2-8.1c2.7-2.6,4-6.3,3.6-9.9l2.9-2.8c2.3-2.2,5.4-3.5,8.7-3.5H94c6.3,0,12.3-2.4,16.8-6.8
			c0.1-0.1,0.1-0.1,0.2-0.2l24-28.5C138.8,61,138.2,54.3,133.7,50.5z M47.3,5.3h63.4v54.5l-7.7,7.9c-2-2.4-5-3.9-8.3-3.9h-31
			c-0.2,0-0.4,0-0.5-0.1c-4.2-1.7-8.6-2.5-13.1-2.5c-0.9,0-1.8,0-2.7,0.1V5.3z M39.8,113.3l-6.3,6.3L7,93.4l6.4-6.3
			c2.8-2.8,7.3-2.7,10.1,0l16.4,16.3C42.6,106.1,42.6,110.6,39.8,113.3z M130.9,62L107,90.4c-3.5,3.3-8.1,5.2-13,5.2H58.8
			c-4.6,0-9,1.8-12.4,4.9l-1.2,1.1c-0.5-0.7-1-1.4-1.6-2L27.1,83.4c-0.9-0.9-1.9-1.6-3-2.2c4.1-8,11.4-13.1,20.8-14.4
			c5.4-0.8,10.8-0.3,16.1,1.8c0.8,0.3,1.7,0.5,2.6,0.5h31c2.9,0,5.4,2.3,5.4,5.3c0,2.9-2.4,5.3-5.4,5.3H71.4c-1.5,0-2.7,1.2-2.7,2.6
			c0,1.5,1.2,2.6,2.7,2.6h23.3c5.9,0,10.7-4.8,10.7-10.6c0-0.5,0-0.9-0.1-1.4c0.6-0.6,16.7-17.1,17.3-17.7c0,0,0.1-0.1,0.1-0.1
			c1.9-2.2,5.3-2.5,7.5-0.6C132.5,56.4,132.8,59.8,130.9,62z"/>
	</g>
</g>
</svg>
